<svg xmlns="http://www.w3.org/2000/svg">
  <symbol id="mobile" viewBox="0 0 24 24">
    <path d="M11 14C10.7348 14 10.4804 13.8946 10.2929 13.7071C10.1054 13.5196 10 13.2652 10 13V2C10 1.46957 10.2107 0.960859 10.5858 0.585786C10.9609 0.210714 11.4696 0 12 0L22 0C22.5304 0 23.0391 0.210714 23.4142 0.585786C23.7893 0.960859 24 1.46957 24 2V9C24 9.53043 23.7893 10.0391 23.4142 10.4142C23.0391 10.7893 22.5304 11 22 11H15.333L11.6 13.8C11.4269 13.9298 11.2164 14 11 14Z" />
    <path d="M16 13V20C16 20.2652 15.8946 20.5196 15.7071 20.7071C15.5196 20.8946 15.2652 21 15 21H5C4.73478 21 4.48043 20.8946 4.29289 20.7071C4.10536 20.5196 4 20.2652 4 20V6C4 5.73478 4.10536 5.48043 4.29289 5.29289C4.48043 5.10536 4.73478 5 5 5H8V2H5C4.20435 2 3.44129 2.31607 2.87868 2.87868C2.31607 3.44129 2 4.20435 2 5V21C2 21.7956 2.31607 22.5587 2.87868 23.1213C3.44129 23.6839 4.20435 24 5 24H15C15.7956 24 16.5587 23.6839 17.1213 23.1213C17.6839 22.5587 18 21.7956 18 21V13H16Z" />
  </symbol>
  <symbol id="credits" viewBox="0 0 24 24">
    <path d="M23 21H22V13H20V21H16V13H14V21H10V13H8V21H4V13H2V21H1C0.448 21 0 21.447 0 22C0 22.553 0.448 23 1 23H23C23.552 23 24 22.553 24 22C24 21.447 23.552 21 23 21Z" />
    <path d="M23.479 6.12199L12.479 0.121988C12.18 -0.0400117 11.82 -0.0400117 11.521 0.121988L0.521 6.12199C0.2 6.29699 0 6.63399 0 6.99999V9.99999C0 10.553 0.448 11 1 11H23C23.552 11 24 10.553 24 9.99999V6.99999C24 6.63399 23.8 6.29699 23.479 6.12199ZM12 7.99999C10.895 7.99999 10 7.10499 10 5.99999C10 4.89499 10.895 3.99999 12 3.99999C13.105 3.99999 14 4.89499 14 5.99999C14 7.10499 13.105 7.99999 12 7.99999Z" />
  </symbol>
  <symbol id="other_payments" viewBox="0 0 24 24">
    <path d="M21 15H19V18H16V20H19V23H21V20H24V18H21V15Z" />
    <path d="M21 1H3C1.346 1 0 2.346 0 4V17C0 18.654 1.346 20 3 20H12V18H3C2.448 18 2 17.551 2 17V12H24V4C24 2.346 22.654 1 21 1ZM2 6V4C2 3.449 2.448 3 3 3H21C21.552 3 22 3.449 22 4V6H2Z" />
  </symbol>
  <symbol id="hobby" viewBox="0 0 24 21">
    <path d="M21 3H19L17 0H11L9 3H3C2.20435 3 1.44129 3.31607 0.87868 3.87868C0.31607 4.44129 0 5.20435 0 6L0 18C0 18.7956 0.31607 19.5587 0.87868 20.1213C1.44129 20.6839 2.20435 21 3 21H21C21.7956 21 22.5587 20.6839 23.1213 20.1213C23.6839 19.5587 24 18.7956 24 18V6C24 5.20435 23.6839 4.44129 23.1213 3.87868C22.5587 3.31607 21.7956 3 21 3ZM6 19H4V5H6V19ZM14 17C13.0111 17 12.0444 16.7068 11.2221 16.1573C10.3999 15.6079 9.75904 14.827 9.3806 13.9134C9.00216 12.9998 8.90315 11.9945 9.09607 11.0245C9.289 10.0546 9.7652 9.16373 10.4645 8.46447C11.1637 7.7652 12.0546 7.289 13.0245 7.09607C13.9945 6.90315 14.9998 7.00216 15.9134 7.3806C16.827 7.75904 17.6079 8.3999 18.1573 9.22215C18.7068 10.0444 19 11.0111 19 12C19 13.3261 18.4732 14.5979 17.5355 15.5355C16.5979 16.4732 15.3261 17 14 17Z" />
  </symbol>
  <symbol id="subscriptions" viewBox="0 0 20 24">
    <path d="M19.855 18.482C18.6697 16.5232 18.0293 14.2833 18 11.994V8.006C18 5.88426 17.1571 3.84943 15.6568 2.34914C14.1565 0.848851 12.1217 0.0059967 9.99999 0.0059967C7.87825 0.0059967 5.84342 0.848851 4.34313 2.34914C2.84284 3.84943 1.99999 5.88426 1.99999 8.006V11.988C1.9717 14.2793 1.33125 16.5214 0.144986 18.482C0.0531559 18.6336 0.00328797 18.807 0.000490736 18.9842C-0.0023065 19.1615 0.0420675 19.3363 0.129067 19.4907C0.216066 19.6452 0.342563 19.7738 0.495599 19.8633C0.648635 19.9527 0.822708 19.9999 0.999986 20H19C19.1773 19.9999 19.3513 19.9527 19.5044 19.8633C19.6574 19.7738 19.7839 19.6452 19.8709 19.4907C19.9579 19.3363 20.0023 19.1615 19.9995 18.9842C19.9967 18.807 19.9468 18.6336 19.855 18.482Z" />
    <path d="M11.007 23.825C11.4261 23.6757 11.8067 23.435 12.1213 23.1204C12.436 22.8058 12.6766 22.4251 12.826 22.006H7.17398C7.30622 22.3771 7.51026 22.7186 7.77445 23.0108C8.03864 23.3031 8.35782 23.5404 8.71374 23.7094C9.06967 23.8783 9.45539 23.9754 9.84886 23.9953C10.2423 24.0151 10.6359 23.9572 11.007 23.825Z" />
  </symbol>
  <symbol id="transport" viewBox="0 0 20 24">
    <path d="M18 0H2C0.895 0 0 0.895 0 2V14C0 16.414 1.721 18.434 4 18.899V23C4 23.552 4.448 24 5 24H15C15.552 24 16 23.552 16 23V18.899C18.279 18.434 20 16.415 20 14V2C20 0.895 19.105 0 18 0ZM6 14H8V22H6V14ZM14 22H11V14H14V22ZM16 8H4V4H16V8Z" />
  </symbol>
  <symbol id="restaurants" viewBox="0 0 20 24">
    <path d="M16 3L13 0L10 3L7 0L4 3L0 0V23C0 23.553 0.448 24 1 24H19C19.552 24 20 23.553 20 23V0L16 3ZM11 19H4V17H11V19ZM11 15H4V13H11V15ZM11 11H4V9H11V11ZM16 19H13V17H16V19ZM16 15H13V13H16V15ZM16 11H13V9H16V11Z" />
  </symbol>
  <symbol id="utility" viewBox="0 0 18 23">
    <path d="M9.71 0.300032C9.5184 0.11806 9.26425 0.0166016 9 0.0166016C8.73576 0.0166016 8.4816 0.11806 8.29 0.300032C7.952 0.637032 1.60054e-06 8.71103 1.60054e-06 14C-0.0116241 15.1852 0.213229 16.3607 0.661405 17.4579C1.10958 18.5551 1.77208 19.5519 2.61013 20.3899C3.44818 21.228 4.44496 21.8905 5.54214 22.3386C6.63932 22.7868 7.81487 23.0117 9 23C10.1851 23.0117 11.3607 22.7868 12.4579 22.3386C13.555 21.8905 14.5518 21.228 15.3899 20.3899C16.2279 19.5519 16.8904 18.5551 17.3386 17.4579C17.7868 16.3607 18.0116 15.1852 18 14C18 8.71103 10.048 0.637032 9.71 0.300032ZM10 18H9C8.47229 18.0088 7.9482 17.9114 7.45893 17.7135C6.96965 17.5156 6.52519 17.2212 6.15199 16.848C5.77879 16.4748 5.48448 16.0304 5.28657 15.5411C5.08867 15.0518 4.99121 14.5277 5 14V13H7V14C7 14.5305 7.21072 15.0392 7.58579 15.4142C7.96086 15.7893 8.46957 16 9 16H10V18Z" />
  </symbol>
  <symbol id="online_shopping" viewBox="0 0 22 24">
    <path d="M19.1647 6.06777C19.1633 6.07766 19.1629 6.07993 19.1603 6.09759C19.1603 6.09759 19.1624 6.08321 19.1647 6.06777Z" />
    <path d="M19.1647 6.06777C19.1688 6.04054 19.1716 6.02194 19.1647 6.06777V6.06777Z" />
    <path d="M18.1486 1.80966C17.0372 0.54304 15.0284 0 12.4585 0H5.00005C4.47428 0 4.02747 0.38238 3.94518 0.90086L0.839598 20.597C0.777888 20.9854 1.07862 21.3372 1.47226 21.3372H6.07684L7.23329 14.0022L7.19743 14.2319C7.27976 13.7134 7.7232 13.331 8.24833 13.331H10.4364C14.7349 13.331 18.1007 11.5851 19.0839 6.53438C19.1131 6.38503 19.1603 6.09758 19.1603 6.09758C19.4391 4.22865 19.1583 2.96016 18.1486 1.80966Z" />
    <path d="M20.3258 7.05404C19.2566 12.0265 15.8465 14.6585 10.4365 14.6585H8.47406L7.01068 24H10.1936C10.653 24 11.044 23.6654 11.1157 23.212L11.1535 23.0142L11.8851 18.3777L11.9322 18.1215C12.0039 17.668 12.3949 17.3335 12.8543 17.3335H13.4352C17.1953 17.3335 20.1396 15.8059 20.9999 11.3879C21.3447 9.61549 21.1795 8.12845 20.3258 7.05404Z" />
  </symbol>
  <symbol id="debts" viewBox="0 0 24 24">
    <path d="M17.5 13C19.433 13 21 11.433 21 9.5C21 7.567 19.433 6 17.5 6C15.567 6 14 7.567 14 9.5C14 11.433 15.567 13 17.5 13Z" />
    <path d="M9.5 7C11.433 7 13 5.433 13 3.5C13 1.567 11.433 0 9.5 0C7.567 0 6 1.567 6 3.5C6 5.433 7.567 7 9.5 7Z" />
    <path d="M22.996 17.908C22.903 16.902 21.949 15 19 15H13.998C13.085 13.786 11.633 13 10 13H7.472C5.94 11.372 3.06 11 2 11H0V19.618L7.369 23.303C7.93 23.583 8.543 23.724 9.159 23.724C9.644 23.724 10.132 23.636 10.595 23.459L23.066 18.662L22.996 17.908ZM9.877 21.592C9.352 21.794 8.765 21.764 8.264 21.514L2 18.382V13C3.074 13 5.402 13.462 6.181 14.573L6.479 15H10C11.304 15 12.416 15.836 12.829 17H7V19H15V18C15 17.657 14.966 17.323 14.899 17H19C19.848 17 20.338 17.217 20.622 17.459L9.877 21.592Z" />
  </symbol>
  <symbol id="plus" viewBox="0 0 30 30">
    <path d="M28.6364 13.6364H16.3636V1.36364C16.3636 0.545455 15.8182 0 15 0C14.1818 0 13.6364 0.545455 13.6364 1.36364V13.6364H1.36364C0.545455 13.6364 0 14.1818 0 15C0 15.8182 0.545455 16.3636 1.36364 16.3636H13.6364V28.6364C13.6364 29.4545 14.1818 30 15 30C15.8182 30 16.3636 29.4545 16.3636 28.6364V16.3636H28.6364C29.4545 16.3636 30 15.8182 30 15C30 14.1818 29.4545 13.6364 28.6364 13.6364Z" />
  </symbol>
  <symbol id="close" viewBox="0 0 14 13">
    <path d="M1.18381 12.2883C1.39724 12.5017 1.66404 12.6084 1.95752 12.6084C2.251 12.6084 2.5178 12.5017 2.73124 12.2883L7.00001 8.01949L11.2688 12.2883C11.4822 12.5017 11.749 12.6084 12.0425 12.6084C12.336 12.6084 12.6028 12.5017 12.8162 12.2883C13.2431 11.8614 13.2431 11.1677 12.8162 10.7408L8.54744 6.47206L12.8162 2.20328C13.2431 1.7764 13.2431 1.08273 12.8162 0.655851C12.3893 0.228974 11.6957 0.228974 11.2688 0.655851L7.00001 4.92463L2.73124 0.655851C2.30436 0.228974 1.61068 0.228974 1.18381 0.655851C0.756928 1.08273 0.756928 1.7764 1.18381 2.20328L5.45258 6.47206L1.18381 10.7408C0.756928 11.1677 0.756928 11.8614 1.18381 12.2883Z" />
  </symbol>
  <symbol id="calendar" viewBox="0 0 28 30">
    <path d="M19.3333 2V7.33333M8.66667 2V7.33333M2 12.6667H26M4.66667 4.66667H23.3333C24.8061 4.66667 26 5.86057 26 7.33333V26C26 27.4728 24.8061 28.6667 23.3333 28.6667H4.66667C3.19391 28.6667 2 27.4728 2 26V7.33333C2 5.86057 3.19391 4.66667 4.66667 4.66667Z" stroke="#898989" stroke-width="2.5" stroke-linecap="round" stroke-linejoin="round"/>
  </symbol>
  <symbol id="menu" viewBox="0 0 4 20">
    <path d="M2.68583e-05 10C2.68125e-05 11.1046 0.849925 12 1.89833 12C2.94673 12 3.79663 11.1046 3.79663 10C3.79663 8.89543 2.94673 8 1.89833 8C0.849926 8 2.69041e-05 8.89543 2.68583e-05 10Z" />
    <path d="M2.68583e-05 2C2.68125e-05 3.10457 0.849925 4 1.89833 4C2.94673 4 3.79663 3.10457 3.79663 2C3.79663 0.89543 2.94673 -3.91404e-08 1.89833 -8.74226e-08C0.849926 -1.35705e-07 2.69041e-05 0.89543 2.68583e-05 2Z" />
    <path d="M2.68583e-05 18C2.68125e-05 19.1046 0.849925 20 1.89833 20C2.94673 20 3.79663 19.1046 3.79663 18C3.79663 16.8954 2.94673 16 1.89833 16C0.849926 16 2.69041e-05 16.8954 2.68583e-05 18Z" />
  </symbol>
  <symbol id="loader" viewBox="0 0 24 24">
    <path d="M12 2V6M12 18V22M4.93 4.93L7.76 7.76M16.24 16.24L19.07 19.07M2 12H6M18 12H22M4.93 19.07L7.76 16.24M16.24 7.76L19.07 4.93" stroke="#989898" stroke-width="2.5" stroke-linecap="round" stroke-linejoin="round"/>
  </symbol>
</svg>